HIERARCHY
ROOT joint_Root
{
	OFFSET 0.0 0.0 0.0
	CHANNELS 6 Xposition Yposition Zposition Zrotation Xrotation Yrotation 
	JOINT Hips
	{
		OFFSET -0.726466 93.3139 -2.00062
		CHANNELS 6 Xposition Yposition Zposition Zrotation Xrotation Yrotation 
		JOINT Spine
		{
			OFFSET 15.7357 0.0 0.0
			CHANNELS 6 Xposition Yposition Zposition Zrotation Xrotation Yrotation 
			JOINT Chest
			{
				OFFSET 8.98455 -0.406207 0.0
				CHANNELS 6 Xposition Yposition Zposition Zrotation Xrotation Yrotation 
				JOINT Neck
				{
					OFFSET 16.3773 0.0 0.0
					CHANNELS 6 Xposition Yposition Zposition Zrotation Xrotation Yrotation 
					JOINT Head
					{
						OFFSET 6.45672 0.0 0.0
						CHANNELS 6 Xposition Yposition Zposition Zrotation Xrotation Yrotation 
						End Site
						{
							OFFSET 0.0 0.0 0.0
						}
					}
				}
				JOINT Shoulder_L
				{
					OFFSET 12.9942 -0.242716 4.98039
					CHANNELS 6 Xposition Yposition Zposition Zrotation Xrotation Yrotation 
					JOINT UpperArm_L
					{
						OFFSET 5.34809 0.0 0.0
						CHANNELS 6 Xposition Yposition Zposition Zrotation Xrotation Yrotation 
						JOINT LowerArm_L
						{
							OFFSET 24.3286 1.87007e-05 0.0
							CHANNELS 6 Xposition Yposition Zposition Zrotation Xrotation Yrotation 
							JOINT Hand_L
							{
								OFFSET 22.2916 0.0 0.0
								CHANNELS 6 Xposition Yposition Zposition Zrotation Xrotation Yrotation 
								End Site
								{
									OFFSET 0.0 0.0 0.0
								}
							}
						}
					}
				}
				JOINT Shoulder_R
				{
					OFFSET 12.9945 -0.242716 -4.98039
					CHANNELS 6 Xposition Yposition Zposition Zrotation Xrotation Yrotation 
					JOINT UpperArm_R
					{
						OFFSET -5.34813 0.0 0.0
						CHANNELS 6 Xposition Yposition Zposition Zrotation Xrotation Yrotation 
						JOINT LowerArm_R
						{
							OFFSET -24.3289 0.000322201 0.0
							CHANNELS 6 Xposition Yposition Zposition Zrotation Xrotation Yrotation 
							JOINT Hand_R
							{
								OFFSET -22.2915 -0.000108084 0.0
								CHANNELS 6 Xposition Yposition Zposition Zrotation Xrotation Yrotation 
								End Site
								{
									OFFSET 0.0 0.0 0.0
								}
							}
						}
					}
				}
			}
		}
		JOINT UpperLeg_L
		{
			OFFSET -2.19248 -6.46944 0.0
			CHANNELS 6 Xposition Yposition Zposition Zrotation Xrotation Yrotation 
			JOINT LowerLeg_L
			{
				OFFSET 39.0811 0.0 -1.23785e-05
				CHANNELS 6 Xposition Yposition Zposition Zrotation Xrotation Yrotation 
				JOINT Foot_L
				{
					OFFSET 40.9854 0.0 -1.26872e-05
					CHANNELS 6 Xposition Yposition Zposition Zrotation Xrotation Yrotation 
					JOINT Toes_L
					{
						OFFSET 11.7543 0.0 0.0
						CHANNELS 6 Xposition Yposition Zposition Zrotation Xrotation Yrotation 
						End Site
						{
							OFFSET 0.0 0.0 0.0
						}
					}
				}
			}
		}
		JOINT UpperLeg_R
		{
			OFFSET -2.19251 6.46944 0.0
			CHANNELS 6 Xposition Yposition Zposition Zrotation Xrotation Yrotation 
			JOINT LowerLeg_R
			{
				OFFSET -39.0811 -0.00228153 -0.0401928
				CHANNELS 6 Xposition Yposition Zposition Zrotation Xrotation Yrotation 
				JOINT Foot_R
				{
					OFFSET -40.9854 0.0 0.0
					CHANNELS 6 Xposition Yposition Zposition Zrotation Xrotation Yrotation 
					JOINT Toes_R
					{
						OFFSET -11.7543 0.0 0.0
						CHANNELS 6 Xposition Yposition Zposition Zrotation Xrotation Yrotation 
						End Site
						{
							OFFSET 0.0 0.0 0.0
						}
					}
				}
			}
		}
	}
}
MOTION
Frames:	9
Frame Time:	0.0333333
0.000000 0.000000 0.000000 0.000000 0.000000 -0.000000 -1.591220 92.406800 -0.660131 88.704500 1.143760 2.217650 15.735700 0.000005 -0.000001 74.031200 85.928900 -71.840000 8.984550 -0.406207 -0.000000 0.111965 -2.385730 4.382500 16.377300 -0.000001 -0.000001 0.847649 -2.037610 -1.344810 6.456720 -0.000001 -0.000000 2.225690 -1.641360 -0.365942 12.994200 -0.242716 4.980390 -88.540900 -4.165570 -70.675600 5.348090 -0.000007 -0.000001 -40.959500 -33.339200 -56.909900 24.328600 0.000019 0.000005 26.301800 -2.278860 -94.595200 22.291600 -0.000001 0.000005 33.679900 5.632430 -13.500300 12.994500 -0.242716 -4.980390 88.330000 5.160920 -72.041800 -5.348130 -0.000001 -0.000004 -63.447000 35.606400 -16.345800 -24.328900 0.000322 -0.000009 1.976370 6.811430 -16.231500 -22.291500 -0.000108 -0.000004 7.370020 5.376430 -2.186570 -2.192480 -6.469440 -0.000000 -175.698000 -6.616690 -3.803880 39.081100 -0.000007 -0.000012 -0.103144 0.263285 21.393200 40.985400 -0.000006 -0.000013 -0.674197 4.487540 -65.581800 11.754300 -0.000000 0.000003 -0.000029 -0.000352 -16.591300 -2.192510 6.469440 -0.000001 -179.959000 16.387900 179.549000 -39.081100 -0.002282 -0.040193 -0.016818 0.060937 18.291000 -40.985400 0.000008 0.000006 4.378950 5.408070 -66.262700 -11.754300 -0.000006 -0.000006 -0.005445 -0.065706 -19.246800
0.000000 0.000000 0.000000 0.000000 0.000000 -0.000000 -1.611510 92.424200 -0.696928 88.602400 0.493216 2.046070 15.735700 0.000005 -0.000001 73.912600 85.945500 -71.613400 8.984550 -0.406207 -0.000000 0.078333 -2.400600 4.597770 16.377300 -0.000001 -0.000001 0.854514 -2.146490 -1.184470 6.456720 -0.000001 -0.000000 2.200860 -1.723300 -0.569181 12.994200 -0.242716 4.980390 -88.463200 -4.383980 -70.659700 5.348090 -0.000007 -0.000001 -51.164300 -37.513700 -60.812900 24.328600 0.000019 0.000005 22.713300 -0.095187 -90.219500 22.291600 -0.000001 0.000005 32.784700 5.606690 -11.746300 12.994500 -0.242716 -4.980390 88.283400 5.272960 -71.938300 -5.348130 -0.000001 -0.000004 -62.871000 36.011100 -16.811400 -24.328900 0.000322 -0.000009 2.006350 6.227890 -17.905600 -22.291500 -0.000108 -0.000004 7.343650 5.381770 -2.354160 -2.192480 -6.469440 -0.000000 -175.613000 -6.892970 -3.874780 39.081100 -0.000007 -0.000012 -0.101964 0.261246 21.320700 40.985400 -0.000006 -0.000013 -0.760390 4.136790 -65.571600 11.754300 -0.000000 0.000003 -0.000035 -0.000410 -16.593500 -2.192510 6.469440 -0.000001 -179.770000 16.041100 179.350000 -39.081100 -0.002282 -0.040193 -0.013174 0.050257 18.174300 -40.985400 0.000008 0.000006 4.593260 5.689910 -66.166900 -11.754300 -0.000006 -0.000006 -0.005365 -0.064959 -19.216400
0.000000 0.000000 0.000000 0.000000 0.000000 -0.000000 -1.637080 92.434400 -0.721859 88.558400 -0.143029 1.915850 15.735700 0.000005 -0.000001 74.217700 85.948000 -71.848100 8.984550 -0.406207 -0.000000 0.086202 -2.362260 4.738510 16.377300 -0.000001 -0.000001 0.914853 -2.213890 -1.046530 6.456720 -0.000001 -0.000000 2.151120 -1.838350 -0.516374 12.994200 -0.242716 4.980390 -88.397500 -4.546500 -70.559900 5.348090 -0.000007 -0.000001 -63.830100 -40.973500 -67.428200 24.328600 0.000019 0.000005 17.366400 1.586120 -84.925100 22.291600 -0.000001 0.000005 33.060100 5.586870 -10.590600 12.994500 -0.242716 -4.980390 88.226400 5.426620 -71.870100 -5.348130 -0.000001 -0.000004 -62.513300 36.103400 -17.127700 -24.328900 0.000322 -0.000009 2.024040 5.842000 -19.157200 -22.291500 -0.000108 -0.000004 7.366980 5.384990 -2.455710 -2.192480 -6.469440 -0.000000 -175.567000 -7.234040 -3.889040 39.081100 -0.000007 -0.000012 -0.103262 0.265640 21.242600 40.985400 -0.000006 -0.000013 -0.842638 3.835640 -65.566500 11.754300 -0.000000 0.000003 -0.000031 -0.000367 -16.591900 -2.192510 6.469440 -0.000001 -179.675000 15.686300 179.175000 -39.081100 -0.002282 -0.040193 -0.013633 0.051803 18.125800 -40.985400 0.000008 0.000006 4.611490 5.960500 -66.087500 -11.754300 -0.000006 -0.000006 -0.005535 -0.066549 -19.281200
0.000000 0.000000 0.000000 0.000000 0.000000 -0.000000 -1.659260 92.439300 -0.723299 88.495100 -0.649440 1.842220 15.735700 0.000005 -0.000001 74.749700 85.953900 -72.339800 8.984550 -0.406207 -0.000000 0.094474 -2.289220 4.819140 16.377300 -0.000001 -0.000001 1.099810 -2.322970 -0.830557 6.456720 -0.000001 -0.000000 2.134750 -2.003130 -0.354127 12.994200 -0.242716 4.980390 -88.322500 -4.691680 -70.299900 5.348090 -0.000007 -0.000001 -77.528300 -42.434900 -76.079200 24.328600 0.000019 0.000005 10.455100 2.090530 -78.795000 22.291600 -0.000001 0.000005 34.992900 5.581020 -10.273800 12.994500 -0.242716 -4.980390 88.202900 5.495510 -71.860400 -5.348130 -0.000001 -0.000004 -62.601400 35.977600 -17.157100 -24.328900 0.000322 -0.000009 2.030360 5.644330 -19.831300 -22.291500 -0.000108 -0.000004 7.492260 5.387460 -2.534170 -2.192480 -6.469440 -0.000000 -175.497000 -7.512560 -3.865910 39.081100 -0.000007 -0.000012 -0.102671 0.264543 21.211500 40.985400 -0.000006 -0.000013 -0.901032 3.628400 -65.597400 11.754300 -0.000000 0.000003 -0.000032 -0.000378 -16.592300 -2.192510 6.469440 -0.000001 -179.590000 15.429100 179.101000 -39.081100 -0.002282 -0.040193 -0.014403 0.054372 18.058600 -40.985400 0.000008 0.000006 4.610750 6.215610 -66.027300 -11.754300 -0.000006 -0.000006 -0.005376 -0.065056 -19.220300
0.000000 0.000000 0.000000 0.000000 0.000000 -0.000000 -1.704030 92.435200 -0.709974 88.454500 -0.826350 1.732740 15.735700 0.000005 -0.000001 74.906400 85.979700 -72.478100 8.984550 -0.406207 -0.000000 0.050169 -2.256620 4.855100 16.377300 -0.000001 -0.000001 1.258360 -2.420390 -0.693086 6.456720 -0.000001 -0.000000 2.301060 -2.182460 -0.162908 12.994200 -0.242716 4.980390 -88.216600 -4.953000 -70.169400 5.348090 -0.000007 -0.000001 -89.923800 -42.139200 -84.139900 24.328600 0.000019 0.000005 6.172020 1.816470 -73.650300 22.291600 -0.000001 0.000005 37.013500 5.556240 -9.014940 12.994500 -0.242716 -4.980390 88.227800 5.428530 -71.889400 -5.348130 -0.000001 -0.000004 -62.909200 35.948300 -17.065900 -24.328900 0.000322 -0.000009 2.008330 5.576660 -19.851600 -22.291500 -0.000108 -0.000004 7.476580 5.388400 -2.563920 -2.192480 -6.469440 -0.000000 -175.445000 -7.570360 -3.973300 39.081100 -0.000007 -0.000012 -0.104620 0.268952 21.255700 40.985400 -0.000006 -0.000013 -0.959865 3.485140 -65.628800 11.754300 -0.000000 0.000003 -0.000032 -0.000379 -16.592400 -2.192510 6.469440 -0.000001 -179.499000 15.349800 178.988000 -39.081100 -0.002282 -0.040193 -0.015452 0.057580 18.061000 -40.985400 0.000008 0.000006 4.683170 6.285090 -66.042800 -11.754300 -0.000006 -0.000006 -0.005429 -0.065560 -19.240900
0.000000 0.000000 0.000000 0.000000 0.000000 -0.000000 -1.732760 92.441900 -0.681732 88.480800 -0.731786 1.745150 15.735700 0.000005 -0.000001 74.587000 85.989300 -72.172100 8.984550 -0.406207 -0.000000 0.020371 -2.294480 4.827790 16.377300 -0.000001 -0.000001 1.427610 -2.486640 -0.607181 6.456720 -0.000001 -0.000000 2.521800 -2.223460 -0.110465 12.994200 -0.242716 4.980390 -88.126400 -5.199790 -70.153400 5.348090 -0.000007 -0.000001 -97.783400 -41.404900 -88.965800 24.328600 0.000019 0.000005 2.787190 0.970951 -70.793300 22.291600 -0.000001 0.000005 38.521800 5.516380 -7.221200 12.994500 -0.242716 -4.980390 88.265800 5.329320 -71.945200 -5.348130 -0.000001 -0.000004 -63.120500 36.277200 -16.937700 -24.328900 0.000322 -0.000009 2.038420 5.808390 -19.385900 -22.291500 -0.000108 -0.000004 7.406980 5.385710 -2.478420 -2.192480 -6.469440 -0.000000 -175.447000 -7.457500 -3.903880 39.081100 -0.000007 -0.000012 -0.104806 0.270824 21.156000 40.985400 -0.000006 -0.000013 -0.991360 3.479340 -65.591000 11.754300 -0.000000 0.000003 -0.000036 -0.000424 -16.594100 -2.192510 6.469440 -0.000001 -179.499000 15.399000 179.069000 -39.081100 -0.002282 -0.040193 -0.012991 0.050286 17.976500 -40.985400 0.000008 0.000006 4.681770 6.257530 -66.030900 -11.754300 -0.000006 -0.000006 -0.005253 -0.063895 -19.173000
0.000000 0.000000 0.000000 0.000000 0.000000 -0.000000 -1.779430 92.431400 -0.649014 88.493200 -0.347270 1.723860 15.735700 0.000005 -0.000001 74.079000 85.990500 -71.700800 8.984550 -0.406207 -0.000000 -0.000695 -2.360230 4.754020 16.377300 -0.000001 -0.000001 1.458270 -2.540660 -0.581654 6.456720 -0.000001 -0.000000 2.646440 -2.262010 -0.015643 12.994200 -0.242716 4.980390 -88.105400 -5.258890 -70.155000 5.348090 -0.000007 -0.000001 -99.376200 -41.002900 -89.865900 24.328600 0.000019 0.000005 -1.165680 -0.423359 -70.033200 22.291600 -0.000001 0.000005 40.655500 5.511180 -6.989020 12.994500 -0.242716 -4.980390 88.265200 5.327880 -71.934800 -5.348130 -0.000001 -0.000004 -63.291500 36.535700 -16.686400 -24.328900 0.000322 -0.000009 2.074620 6.124440 -18.763400 -22.291500 -0.000108 -0.000004 7.264110 5.384600 -2.443380 -2.192480 -6.469440 -0.000000 -175.433000 -7.296440 -3.993470 39.081100 -0.000007 -0.000012 -0.103996 0.267771 21.225000 40.985400 -0.000006 -0.000013 -0.973909 3.682300 -65.612200 11.754300 -0.000000 0.000003 -0.000031 -0.000374 -16.592200 -2.192510 6.469440 -0.000001 -179.457000 15.536400 179.064000 -39.081100 -0.002282 -0.040193 -0.011448 0.045388 18.029200 -40.985400 0.000008 0.000006 4.789130 6.000450 -66.116200 -11.754300 -0.000006 -0.000006 -0.005290 -0.064242 -19.187200
0.000000 0.000000 0.000000 0.000000 0.000000 -0.000000 -1.823980 92.427700 -0.597565 88.557800 0.184351 1.779800 15.735700 0.000005 -0.000001 74.130200 85.973200 -71.835700 8.984550 -0.406207 -0.000000 0.032503 -2.356480 4.587270 16.377300 -0.000001 -0.000001 1.430200 -2.568250 -0.535573 6.456720 -0.000001 -0.000000 2.639720 -2.331320 -0.028005 12.994200 -0.242716 4.980390 -88.167800 -5.095340 -70.191600 5.348090 -0.000007 -0.000001 -96.032400 -40.991300 -87.733300 24.328600 0.000019 0.000005 -2.750020 -0.919504 -71.532100 22.291600 -0.000001 0.000005 40.644000 5.522080 -7.451550 12.994500 -0.242716 -4.980390 88.254200 5.347280 -71.889400 -5.348130 -0.000001 -0.000004 -63.641500 36.515200 -16.116200 -24.328900 0.000322 -0.000009 2.083220 6.367350 -18.168000 -22.291500 -0.000108 -0.000004 7.219900 5.383030 -2.394050 -2.192480 -6.469440 -0.000000 -175.443000 -7.063160 -3.963470 39.081100 -0.000007 -0.000012 -0.104917 0.270640 21.189500 40.985400 -0.000006 -0.000013 -0.959889 3.960620 -65.578300 11.754300 -0.000000 0.000003 -0.000036 -0.000421 -16.594000 -2.192510 6.469440 -0.000001 -179.492000 15.836700 179.194000 -39.081100 -0.002282 -0.040193 -0.009033 0.037972 18.027400 -40.985400 0.000008 0.000006 4.877580 5.731800 -66.199900 -11.754300 -0.000006 -0.000006 -0.005330 -0.064624 -19.202700
0.000000 0.000000 0.000000 0.000000 0.000000 -0.000000 -1.871300 92.414400 -0.533754 88.599500 0.809466 1.804910 15.735700 0.000005 -0.000001 74.535600 85.969000 -72.352200 8.984550 -0.406207 -0.000000 0.052087 -2.295990 4.365530 16.377300 -0.000001 -0.000001 1.362390 -2.523390 -0.550278 6.456720 -0.000001 -0.000000 2.632050 -2.402260 0.070539 12.994200 -0.242716 4.980390 -88.233100 -4.900220 -70.143500 5.348090 -0.000007 -0.000001 -88.452500 -40.819000 -83.125300 24.328600 0.000019 0.000005 -1.110480 -0.304367 -74.720000 22.291600 -0.000001 0.000005 40.380200 5.529310 -7.765650 12.994500 -0.242716 -4.980390 88.261700 5.349940 -71.970800 -5.348130 -0.000001 -0.000004 -64.279000 36.102400 -15.236900 -24.328900 0.000322 -0.000009 2.095320 6.665310 -17.503900 -22.291500 -0.000108 -0.000004 7.280350 5.380660 -2.319220 -2.192480 -6.469440 -0.000000 -175.451000 -6.671410 -4.019490 39.081100 -0.000007 -0.000012 -0.104506 0.268756 21.248600 40.985400 -0.000006 -0.000013 -0.939049 4.214940 -65.595400 11.754300 -0.000000 0.000003 -0.000030 -0.000360 -16.591600 -2.192510 6.469440 -0.000001 -179.530000 16.276100 179.299000 -39.081100 -0.002282 -0.040193 -0.010278 0.041770 18.038100 -40.985400 0.000008 0.000006 4.804850 5.559780 -66.281200 -11.754300 -0.000006 -0.000006 -0.005254 -0.063906 -19.173500
